 <svg version="1.0" xmlns="http://www.w3.org/2000/svg"  width="200.000000pt" height="200.000000pt" viewBox="0 0 200.000000 200.000000"  preserveAspectRatio="xMidYMid meet">  <g transform="translate(0.000000,200.000000) scale(0.100000,-0.100000)" fill="#f3624f" stroke="none"> <path d="M330 1915 c-61 -19 -113 -65 -144 -127 l-26 -52 0 -623 0 -624 25 -48 c29 -58 90 -113 144 -129 27 -9 215 -12 650 -12 600 0 612 0 656 21 51 24 110 85 131 135 12 27 14 145 14 657 0 698 4 662 -73 741 -74 77 -65 76 -741 75 -476 0 -600 -3 -636 -14z m24 -27 c-5 -8 -2 -9 12 -2 21 10 1082 17 1182 8 34 -3 60 -9 57 -14 -3 -4 5 -6 17 -2 13 3 19 1 15 -5 -3 -5 10 -18 30 -29 20 -10 45 -32 57 -47 21 -28 21 -36 24 -655 2 -458 0 -638 -9 -667 -13 -45 -75 -116 -96 -108 -7 3 -13 1 -13 -4 0 -30 -57 -33 -663 -33 -604 0 -613 0 -652 21 -52 28 -95 70 -95 92 0 10 -4 16 -9 13 -5 -3 -11 0 -14 8 -3 7 -6 294 -6 637 0 636 3 699 38 691 7 -1 10 2 6 8 -7 11 17 40 34 40 5 0 13 5 17 12 4 7 3 8 -4 4 -7 -4 -12 -4 -12 -1 0 3 19 14 43 25 52 23 50 22 41 8z"/> <path d="M752 1553 c-13 -3 -27 -15 -32 -27 -10 -27 -15 -175 -7 -196 4 -8 9 -28 11 -43 3 -16 10 -35 16 -42 7 -8 9 -19 5 -25 -4 -6 -3 -9 2 -8 13 5 63 -38 55 -47 -4 -5 0 -6 8 -3 8 3 21 -1 28 -8 10 -12 10 -14 -3 -14 -8 0 -15 -5 -15 -11 0 -5 -5 -7 -12 -3 -6 4 -8 3 -5 -3 3 -5 -7 -25 -23 -44 -16 -19 -29 -38 -30 -43 0 -5 -8 -18 -17 -29 -15 -16 -19 -44 -22 -173 -2 -112 0 -154 9 -154 6 0 9 -4 6 -9 -14 -21 28 -29 161 -30 91 -1 158 3 185 11 56 17 143 75 143 96 0 10 6 16 15 14 8 -2 12 0 8 3 -4 4 4 29 17 56 28 55 30 63 13 53 -10 -6 -10 -4 0 8 12 15 12 51 -1 64 -4 4 -7 18 -7 31 0 14 -7 31 -15 40 -8 8 -13 18 -10 22 2 5 -6 18 -20 31 -14 13 -21 28 -18 38 4 9 2 13 -3 9 -6 -3 -36 11 -67 32 l-56 37 26 26 c61 62 61 195 0 265 -49 55 -99 73 -219 76 -57 2 -113 2 -126 0z m231 -34 c132 -36 180 -196 89 -292 -50 -53 -116 -72 -194 -55 -37 7 -56 19 -87 54 -45 52 -51 74 -51 205 l0 99 103 0 c56 0 119 -5 140 -11z m91 -383 c67 -20 109 -57 140 -121 47 -100 30 -199 -48 -277 -56 -56 -99 -67 -274 -70 l-152 -3 0 145 c0 158 9 192 65 258 60 71 168 98 269 68z"/> <path d="M887 1382 c-31 -34 -20 -74 25 -91 55 -21 103 53 60 92 -24 22 -65 21 -85 -1z"/> <path d="M929 1007 c-88 -59 -73 -174 27 -207 44 -15 109 7 138 46 40 55 16 138 -49 168 -45 22 -76 20 -116 -7z m96 -26 c33 -9 43 -17 53 -45 15 -41 10 -56 -28 -85 -29 -21 -90 -36 -90 -21 0 4 -12 12 -26 18 -14 7 -22 17 -19 22 3 6 1 10 -4 10 -14 0 -14 47 0 55 6 4 8 14 5 22 -3 8 -1 11 4 8 13 -8 42 20 32 30 -4 4 2 5 13 2 11 -3 38 -10 60 -16z"/> </g> </svg> 