<svg version="1.0" xmlns="http://www.w3.org/2000/svg"  
  width="200.000000pt" height="200.000000pt" viewBox="0 0 200.000000 200.000000"  
  preserveAspectRatio="xMidYMid meet">  
  <g transform="translate(0.000000,200.000000) scale(0.100000,-0.100000)" fill="#000000" stroke="none">
    <path d="M295 1332 c-40 -13 -81 -45 -105 -80 -24 -34 -25 -42 -28 -239 -4 -232 4 -266 73 -319 36 -27 45 -29 169 -35 128 -7 560 -2 602 6 28 6 59 65 51 97 -4 14 -57 73 -118 133 l-112 108 99 96 c145 140 154 156 108 210 l-26 31 -346 -1 c-191 -1 -356 -4 -367 -7z m697 -44 c33 -26 24 -46 -63 -130 -97 -94 -129 -133 -129 -157 0 -22 30 -59 128 -155 103 -103 109 -139 22 -145 l-45 -3 19 21 c11 12 16 24 12 29 -4 4 -152 9 -328 12 -302 5 -320 6 -334 24 -11 16 -14 62 -14 212 0 174 2 194 19 215 l19 24 318 3 317 3 -92 -87 c-100 -95 -126 -133 -117 -170 6 -22 204 -224 228 -233 7 -2 8 6 4 25 -4 18 -41 62 -97 115 -107 103 -110 116 -44 185 25 25 45 43 45 39 0 -3 20 17 45 46 24 28 42 56 39 61 -3 4 1 8 8 8 7 0 0 12 -15 28 -27 27 -28 27 -205 32 l-177 6 211 2 c155 1 214 -1 226 -10z m-696 -20 c4 -6 3 -8 -3 -5 -11 7 -54 -35 -72 -70 -6 -12 -8 -30 -5 -40 5 -17 5 -17 -6 0 -14 22 7 74 42 107 25 23 34 25 44 8z m382 -563 c3 -3 -38 -5 -91 -5 -53 0 -97 3 -97 8 0 8 179 6 188 -3z"/> <path d="M1334 1108 c-70 -37 -84 -55 -84 -114 0 -60 12 -76 84 -115 l43 -22 56 32 c57 33 72 56 65 100 -5 35 -23 25 -28 -15 -4 -29 -13 -42 -42 -61 l-38 -23 0 49 c0 48 1 50 45 75 25 15 45 33 45 41 0 14 -55 54 -91 68 -10 3 -34 -4 -55 -15z m87 -30 l39 -22 -42 -23 -42 -24 -42 23 -42 22 36 23 c46 28 46 28 93 1z m-97 -69 c34 -20 36 -24 36 -70 l0 -49 -37 23 c-34 21 -38 29 -41 71 -2 25 -1 46 2 46 3 0 21 -9 40 -21z"/> <path d="M1690 1097 l-55 -32 -3 -63 c-3 -74 2 -84 70 -118 l48 -24 43 21 c64 33 77 47 77 91 0 48 -18 50 -22 3 -2 -30 -10 -40 -45 -61 l-43 -25 0 50 c0 49 2 51 38 70 55 28 67 45 46 65 -14 14 -86 56 -97 56 -1 0 -27 -15 -57 -33z m105 -19 l37 -21 -38 -24 c-22 -12 -41 -23 -44 -23 -3 0 -22 11 -44 23 l-38 24 33 21 c44 26 51 26 94 0z m-94 -70 c37 -21 39 -24 39 -70 l0 -49 -42 25 c-39 23 -43 29 -46 71 -2 25 0 45 4 45 3 0 24 -10 45 -22z"/> 
  </g> 
</svg> 