 <svg version="1.0" xmlns="http://www.w3.org/2000/svg"  width="200.000000pt" height="200.000000pt" viewBox="0 0 200.000000 200.000000"  preserveAspectRatio="xMidYMid meet">  
 <g transform="translate(0.000000,200.000000) scale(0.100000,-0.100000)" fill="#118E3F" stroke="none"> 
 <path d="M537 1983 c255 -2 671 -2 925 0 255 1 47 2 -462 2 -509 0 -717 -1 -463 -2z"/> <path d="M1950 1980 c0 -5 3 -10 8 -10 4 0 6 -433 5 -962 -2 -530 0 -973 3 -985 4 -13 10 -23 15 -23 5 0 9 426 9 995 0 988 0 995 -20 995 -11 0 -20 -4 -20 -10z"/> <path d="M515 1121 c-22 -11 -36 -20 -31 -20 5 -1 -1 -13 -15 -27 -20 -21 -24 -35 -23 -77 3 -80 5 -86 46 -128 27 -27 38 -47 38 -68 0 -39 36 -65 76 -56 41 9 84 26 84 34 0 3 11 19 24 34 14 16 27 34 29 40 3 9 12 8 33 -2 36 -18 62 -20 97 -10 16 4 27 4 27 -2 0 -6 7 -6 19 1 14 7 21 6 24 -3 4 -9 6 -9 6 1 1 9 11 11 35 7 26 -5 39 -2 54 13 16 16 23 17 41 8 12 -7 18 -16 14 -20 -4 -4 8 -6 27 -5 19 2 40 10 46 18 13 16 58 6 48 -11 -5 -7 -1 -9 9 -5 10 3 17 2 17 -3 0 -6 7 -10 17 -10 9 0 13 -3 10 -7 -4 -3 0 -15 10 -25 24 -26 77 -24 100 6 21 27 70 47 59 25 -4 -8 -1 -6 7 4 8 9 21 17 30 17 8 0 32 16 51 35 20 19 32 35 26 35 -5 0 -7 7 -4 15 4 8 11 12 17 8 7 -4 8 0 4 11 -4 10 -7 30 -7 45 0 16 -11 44 -24 64 -13 19 -21 39 -18 43 4 4 2 4 -4 1 -6 -3 -23 1 -38 9 -35 17 -157 19 -174 2 -7 -7 -12 -9 -12 -4 0 4 -7 0 -16 -8 -16 -16 -39 -22 -30 -8 2 4 -8 13 -24 20 -47 21 -465 10 -488 -13 -3 -2 -10 2 -16 10 -7 9 -38 16 -86 19 -61 5 -83 2 -115 -13z m157 -22 l36 2 0 -118 c0 -156 -16 -186 -115 -208 -31 -6 -33 -5 -33 23 0 25 5 30 32 36 66 13 78 46 15 39 -77 -9 -137 44 -137 119 0 62 75 124 135 112 17 -3 47 -5 67 -5z m278 -114 l0 -112 -72 -1 c-86 0 -119 14 -142 62 -20 43 -20 59 0 102 23 48 56 62 142 62 l72 -1 0 -112z m270 83 c0 -24 4 -28 29 -28 l29 0 1 -85 1 -85 -30 0 -30 0 0 85 0 85 -36 0 -36 0 3 -85 4 -85 -30 0 -30 0 3 85 3 85 -35 0 -36 0 0 -85 0 -85 -30 0 -30 0 0 108 c0 60 2 111 4 113 2 2 59 4 125 4 l121 0 0 -27z m247 15 c31 -14 63 -64 63 -97 0 -9 -6 -32 -14 -51 -19 -46 -66 -69 -123 -61 l-44 6 7 -35 c6 -34 5 -35 -25 -35 l-31 0 0 144 0 144 68 0 c39 0 80 -6 99 -15z"/> <path d="M552 1034 c-42 -29 -24 -97 30 -109 21 -5 33 -1 52 19 32 31 33 50 1 81 -28 29 -51 31 -83 9z m52 -61 c-15 -11 -20 -11 -27 3 -12 21 12 37 31 21 12 -9 11 -13 -4 -24z"/> <path d="M797 1022 c-24 -26 -21 -57 8 -80 30 -24 60 -19 81 14 36 54 -45 114 -89 66z"/> <path d="M1376 1027 c-21 -16 -24 -60 -6 -82 18 -22 77 -19 90 4 33 62 -28 119 -84 78z"/> </g> </svg> 