 <svg version="1.0" xmlns="http://www.w3.org/2000/svg"  width="228.000000pt" height="221.000000pt" viewBox="0 0 228.000000 221.000000" 
  preserveAspectRatio="xMidYMid meet">  <g transform="translate(0.000000,221.000000) scale(0.100000,-0.100000)" 
  fill="#8c3996" stroke="none"> <path d="M985 1491 c-69 -17 -117 -55 -151 -121 -14 -27 -18 -58 -19 -130 l0 -95 370 0 c409 0 419 1 486 62 50 46 70 101 72 204 l2 84 -365 2 c-201 0 -378 -2 -395 -6z m721 -38 c11 -16 10 -49 -2 -129 -6 -40 -66 -110 -113 -132 -32 -14 -78 -17 -383 -17 -310 0 -347 2 -357 16 -14 24 -6 130 13 166 20 39 81 91 121 102 17 5 183 9 369 9 304 1 341 -1 352 -15z"/> <path d="M540 983 c0 -64 6 -99 19 -129 22 -49 92 -111 140 -124 20 -5 117 -10 216 -10 169 0 183 2 231 24 89 41 122 102 131 239 l6 87 -372 0 -371 0 0 -87z m700 42 c15 -18 8 -110 -10 -146 -58 -112 -99 -129 -323 -129 -157 -1 -176 1 -217 21 -53 26 -78 51 -102 102 -21 43 -24 137 -6 155 9 9 96 12 329 12 269 0 318 -2 329 -15z" fill="#8c3996"/> </g> </svg> 