 <svg  version="1.0" xmlns="http://www.w3.org/2000/svg"  width="200.000000pt" height="200.000000pt" viewBox="0 0 200.000000 200.000000"  
 preserveAspectRatio="xMidYMid meet">  <g transform="translate(0.000000,200.000000) scale(0.100000,-0.100000)" fill="#3E4095" stroke="none"> <path d="M1339 1990 c0 -3 0 -83 1 -179 1 -141 -1 -173 -12 -168 -7 3 -208 82 -446 176 l-433 171 -220 0 c-202 0 -219 -1 -218 -17 0 -11 3 -13 6 -5 3 9 52 12 195 12 156 0 196 -3 225 -17 33 -15 58 -55 50 -77 -5 -12 17 -37 27 -30 3 2 4 1 1 -2 -2 -4 9 -23 25 -42 16 -19 26 -40 23 -45 -3 -6 -2 -7 4 -4 5 3 19 -14 31 -39 12 -24 28 -47 36 -50 8 -3 20 -19 26 -35 7 -16 16 -29 21 -29 5 0 9 -5 9 -11 0 -9 45 -75 79 -115 6 -7 7 -14 4 -18 -3 -3 8 -20 26 -38 17 -18 29 -38 26 -46 -2 -7 -1 -11 3 -8 4 2 19 -12 32 -32 14 -20 29 -42 35 -48 12 -13 70 -95 121 -173 20 -29 37 -61 39 -70 1 -9 8 -15 14 -14 6 2 11 -4 11 -12 0 -8 4 -15 9 -15 5 0 16 -16 25 -35 9 -19 21 -35 27 -35 6 0 7 -4 4 -10 -3 -5 -1 -10 4 -10 6 0 11 -4 11 -10 0 -11 94 -146 119 -170 36 -36 -7 34 -145 240 -290 429 -385 565 -395 562 -6 -1 -8 2 -4 7 3 6 -27 58 -66 116 -39 58 -69 108 -67 111 3 2 12 -6 21 -19 9 -13 22 -30 29 -38 8 -8 34 -41 60 -74 25 -33 59 -74 74 -92 16 -17 43 -48 59 -70 17 -21 49 -57 72 -80 23 -23 38 -45 35 -49 -4 -4 -1 -4 6 0 7 4 12 2 12 -5 0 -6 10 -22 23 -34 12 -12 42 -46 67 -75 25 -29 53 -61 64 -71 11 -10 15 -23 10 -31 -4 -7 -4 -10 0 -6 11 9 77 -52 69 -65 -4 -6 -1 -7 7 -2 10 6 12 4 7 -8 -4 -11 -2 -14 8 -11 7 3 18 -3 24 -14 11 -20 41 -37 41 -23 0 4 -39 53 -87 108 -255 290 -538 610 -620 700 -51 57 -93 104 -93 107 0 2 143 -54 318 -123 174 -70 359 -142 409 -161 l93 -35 1 -425 c1 -234 1 -432 0 -440 -2 -12 0 -13 8 -1 5 7 9 59 10 114 1 62 6 107 14 116 7 9 8 12 1 8 -7 -4 -11 2 -11 18 0 14 2 23 6 21 5 -4 5 471 -1 556 -1 20 4 44 12 53 11 13 16 55 18 164 4 214 -18 191 183 191 175 0 174 0 208 -43 12 -15 11 -20 -5 -38 -16 -17 -19 -36 -18 -103 9 -1142 19 -1704 30 -1693 7 7 6 1740 -1 1772 -6 29 -6 29 10 10 9 -11 52 -76 96 -145 l79 -125 0 -600 c0 -331 -4 -605 -9 -610 -15 -18 -151 -287 -154 -307 -2 -10 -10 -27 -19 -37 -14 -17 -35 -19 -205 -20 -186 -2 -228 2 -217 20 3 5 -2 6 -10 3 -9 -4 -16 -1 -16 6 0 7 -11 28 -25 45 -13 18 -21 36 -17 40 4 3 2 5 -3 3 -6 -1 -10 0 -10 3 0 4 -8 16 -18 27 -11 12 -16 26 -11 34 4 7 4 10 0 6 -5 -4 -19 4 -33 18 -13 13 -27 24 -31 24 -4 0 -8 9 -9 19 -2 21 -38 82 -72 120 -11 13 -18 28 -14 34 3 6 1 7 -5 3 -11 -7 -17 6 -13 27 1 5 -3 6 -9 2 -5 -3 -10 0 -10 8 0 7 -9 23 -20 35 -11 12 -20 24 -20 28 0 3 -16 28 -36 55 -20 27 -33 49 -29 49 3 0 -6 11 -20 25 -14 14 -25 29 -25 34 0 4 -9 17 -20 29 -12 12 -18 22 -14 22 4 0 -3 9 -15 19 -12 11 -22 23 -22 28 1 4 -7 19 -17 33 -11 14 -19 29 -20 34 0 5 -4 12 -9 15 -8 6 -20 24 -51 75 -17 29 -61 86 -110 142 -49 56 -66 79 -65 84 1 3 -10 20 -23 38 -14 17 -23 36 -20 40 2 4 -4 9 -15 9 -13 1 -17 -2 -12 -10 17 -29 317 -475 482 -717 l180 -265 -37 -12 c-20 -6 -145 -46 -277 -88 -132 -42 -265 -84 -295 -95 -30 -11 -55 -18 -56 -17 -1 1 -5 264 -9 584 -6 481 -10 586 -22 600 -13 17 -14 17 -9 -2 3 -11 7 -280 10 -598 3 -318 9 -583 12 -589 5 -7 1 -9 -9 -5 -11 4 -14 2 -10 -9 3 -7 0 -14 -6 -14 -6 0 -11 5 -11 11 0 5 -5 7 -10 4 -6 -4 -8 -9 -6 -13 2 -4 -74 -6 -170 -4 -127 2 -174 6 -174 15 0 7 -4 6 -10 -3 -9 -13 -11 -13 -19 0 -11 17 -16 14 -25 -17 l-7 -23 213 0 213 0 355 114 c195 62 362 116 370 120 11 4 38 -28 95 -114 l80 -119 227 -3 226 -3 106 200 106 199 0 616 0 616 -113 177 -114 178 -211 2 c-117 1 -212 0 -213 -3z"/> <path d="M1782 1495 c-1 -33 3 -152 8 -265 6 -113 12 -250 15 -305 2 -55 7 -127 9 -160 3 -33 8 -109 11 -170 10 -224 21 -302 39 -285 3 4 -61 1024 -77 1200 -3 40 -4 38 -5 -15z"/> 
 <path d="M565 1058 c-5 -18 -14 -90 -21 -169 -5 -61 -11 -104 -14 -104 -1 0 -3 -28 -5 -63 -2 -34 -6 -66 -9 -70 -3 -4 -7 -51 -11 -103 -3 -51 -10 -143 -15 -204 -29 -333 20 14 94 673 4 33 2 52 -4 52 -6 0 -12 -6 -15 -12z" fill="#3E4095" /> </g> </svg> 